<?xml version="1.0" encoding="utf-8"?>
<!-- Generator: Adobe Illustrator 16.0.0, SVG Export Plug-In . SVG Version: 6.00 Build 0)  -->
<!DOCTYPE svg PUBLIC "-//W3C//DTD SVG 1.1//EN" "http://www.w3.org/Graphics/SVG/1.1/DTD/svg11.dtd">
<svg version="1.1" id="Layer_1" xmlns="http://www.w3.org/2000/svg" xmlns:xlink="http://www.w3.org/1999/xlink" x="0px" y="0px"
	 width="70px" height="70px" viewBox="0 0 70 70" enable-background="new 0 0 70 70" xml:space="preserve">
<g>
	<path fill="#FFFFFF" d="M59.7,10.3C53.1,3.6,44.3,0,35,0S16.9,3.6,10.3,10.3S0,25.7,0,35c0,6.8,1.9,13.4,5.6,19L2,65.7
		c-0.2,0.7,0,1.4,0.5,1.8C2.9,68,3.7,68.2,4.3,68L16,64.4c5.7,3.7,12.2,5.6,19,5.6c9.3,0,18.1-3.6,24.7-10.3
		C66.4,53.1,70,44.3,70,35C70,25.7,66.4,16.9,59.7,10.3z M35.5,53.9c-0.3,0.2-0.7,0.2-1,0c-0.5-0.3-4.9-3.4-9.3-7.4
		c-6.3-5.8-9.5-10.8-9.5-14.8c0-6.9,5.2-12.5,11.5-12.5c2.7,0,5.3,1,7.4,2.9l0.3,0.3l0.3-0.3c2.1-1.9,4.7-2.9,7.4-2.9
		c6.3,0,11.5,5.6,11.5,12.5c0,4-3.2,9-9.5,14.8C40.6,50.4,36.3,53.3,35.5,53.9z M16.1,63.3L4,67c-0.3,0.1-0.6,0-0.9-0.2
		C2.9,66.6,2.9,66.3,3,66l3.8-12.1l-0.1-0.2C2.9,48.1,1,41.7,1,35c0-9.1,3.5-17.6,10-24.1c6.3-6.3,14.7-9.8,23.6-10v19.7
		c-2.1-1.6-4.6-2.5-7.2-2.5c-6.9,0-12.5,6.1-12.5,13.5c0,4.3,3.3,9.5,9.8,15.5c4.4,4,8.6,7,9.4,7.5c0.2,0.1,0.4,0.2,0.5,0.2v14
		c-6.5-0.1-12.8-2-18.2-5.6L16.1,63.3z M59.1,59.1c-6.3,6.3-14.7,9.8-23.6,10V55c0.2-0.1,0.4-0.1,0.6-0.3c1.1-0.8,5.2-3.7,9.4-7.5
		c6.5-6,9.8-11.2,9.8-15.5c0-7.4-5.6-13.5-12.5-13.5c-2.6,0-5.1,0.9-7.2,2.5V1c8.9,0.1,17.2,3.6,23.6,10c6.4,6.4,10,15,10,24.1
		C69,44.1,65.5,52.6,59.1,59.1z"/>
	<path fill="#FFFFFF" d="M38.6,27.7c-1.3,0-2.6,0.5-3.6,1.3c-1.1-0.8-2.3-1.3-3.6-1.3c-3.4,0-6.1,3-6.1,6.6c0,2.1,1.6,4.6,4.7,7.5
		c2.1,1.9,4.1,3.3,4.5,3.6c0.2,0.1,0.4,0.2,0.6,0.2s0.5-0.1,0.7-0.2c0.4-0.3,2.4-1.7,4.4-3.6c3.1-2.9,4.7-5.4,4.7-7.5
		C44.8,30.6,42,27.7,38.6,27.7z M39.4,41.1c-2,1.8-4,3.2-4.3,3.5c0,0-0.1,0-0.1,0l-0.1,0c-0.4-0.3-2.3-1.6-4.3-3.5
		c-2.9-2.7-4.4-5-4.4-6.8c0-3.1,2.3-5.6,5.2-5.6c1.2,0,2.4,0.5,3.3,1.3l0.3,0.3l0.3-0.3c0.9-0.8,2.1-1.3,3.3-1.3
		c2.8,0,5.2,2.5,5.2,5.6C43.8,36.1,42.3,38.4,39.4,41.1z"/>
</g>
</svg>
