<?xml version="1.0" encoding="utf-8"?>
<!-- Generator: Adobe Illustrator 16.0.0, SVG Export Plug-In . SVG Version: 6.00 Build 0)  -->
<!DOCTYPE svg PUBLIC "-//W3C//DTD SVG 1.1//EN" "http://www.w3.org/Graphics/SVG/1.1/DTD/svg11.dtd">
<svg version="1.1" id="Layer_1" xmlns="http://www.w3.org/2000/svg" xmlns:xlink="http://www.w3.org/1999/xlink" x="0px" y="0px"
	 width="70px" height="80px" viewBox="0 0 70 80" enable-background="new 0 0 70 80" xml:space="preserve">
<g>
	<g>
		<path fill="#FFFFFF" d="M35,80L35,80L0,79.9L35,0l35,79.9L35,80z M1.5,78.9L35,79l33.5-0.1L35,2.4L1.5,78.9z"/>
	</g>
	<g>
		<path fill="#FFFFFF" d="M35,80l-10.5,0L35,56.1L45.5,80L35,80z M26,79l9,0l9,0l-9-20.5L26,79z"/>
	</g>
	<g>
		<path fill="#FFFFFF" d="M35,57c-5.7,0-10.3-2.8-10.3-6.3s4.6-6.3,10.3-6.3c5.7,0,10.3,2.8,10.3,6.3S40.7,57,35,57z M35,45.5
			c-5.1,0-9.3,2.4-9.3,5.3s4.2,5.3,9.3,5.3c5.1,0,9.3-2.4,9.3-5.3S40.1,45.5,35,45.5z"/>
	</g>
</g>
</svg>
