<?xml version="1.0" encoding="utf-8"?>
<!-- Generator: Adobe Illustrator 16.0.0, SVG Export Plug-In . SVG Version: 6.00 Build 0)  -->
<!DOCTYPE svg PUBLIC "-//W3C//DTD SVG 1.1//EN" "http://www.w3.org/Graphics/SVG/1.1/DTD/svg11.dtd">
<svg version="1.1" id="Layer_1" xmlns="http://www.w3.org/2000/svg" xmlns:xlink="http://www.w3.org/1999/xlink" x="0px" y="0px"
	 width="14px" height="14px" viewBox="0 0 14 14" enable-background="new 0 0 14 14" xml:space="preserve">
<g>
	<g>
		<g>
			<g>
				<path fill="#FFFFFF" d="M13.9,5.8l-1.8-1.3V0.3C12.1,0.1,12,0,11.9,0H2.1C2,0,1.9,0.1,1.9,0.3v4.3L0.1,5.8C0,5.8,0,5.9,0,6v7.7
					C0,13.9,0.1,14,0.2,14h13.5c0.1,0,0.2-0.1,0.2-0.3V6C14,5.9,14,5.8,13.9,5.8z M12.1,5.1L13,5.8h-0.9V5.1z M12.1,6.3h0.7
					l-0.7,0.4V6.3z M2.4,0.5h9.3v6.4L7.8,9.2L7.1,8.7c-0.1-0.1-0.2-0.1-0.3,0L6.2,9.2L2.4,6.9V0.5z M1.9,5.1v0.6H1L1.9,5.1z
					 M1.9,6.3v0.4L1.2,6.3H1.9z M0.5,6.4l5.3,3l-5.3,3.8V6.4z M1,13.5l6-4.3l6,4.3H1z M13.5,13.3L8.2,9.5l5.3-3V13.3z"/>
			</g>
		</g>
		<g>
			<g>
				<path fill="#FFFFFF" d="M8.8,6.6c0.1,0,0.2-0.1,0.2-0.2c0-0.1-0.1-0.2-0.2-0.2H7c-0.9,0-1.6-0.8-1.6-1.7V4.3
					c0-1,0.7-1.7,1.6-1.7c0.9,0,1.6,0.8,1.6,1.7v0.2c0,0.2-0.2,0.4-0.4,0.4S7.9,4.7,7.9,4.4V4.1c0-0.6-0.4-1.1-1-1.1s-1,0.5-1,1.1
					c0,0.6,0.4,1.1,1,1.1c0.3,0,0.5-0.1,0.7-0.3C7.7,5.2,8,5.3,8.3,5.3c0.4,0,0.8-0.4,0.8-0.9V4.3C9.1,3,8.1,2,7,2
					C5.9,2,4.9,3,4.9,4.3v0.1c0,1.2,0.9,2.2,2.1,2.2H8.8z M6.9,4.7c-0.3,0-0.5-0.3-0.5-0.6s0.2-0.6,0.5-0.6c0.3,0,0.5,0.3,0.5,0.6
					S7.2,4.7,6.9,4.7z"/>
			</g>
		</g>
	</g>
</g>
</svg>
