<?xml version="1.0" encoding="utf-8"?>
<!-- Generator: Adobe Illustrator 16.0.0, SVG Export Plug-In . SVG Version: 6.00 Build 0)  -->
<!DOCTYPE svg PUBLIC "-//W3C//DTD SVG 1.1//EN" "http://www.w3.org/Graphics/SVG/1.1/DTD/svg11.dtd">
<svg version="1.1" id="Layer_1" xmlns="http://www.w3.org/2000/svg" xmlns:xlink="http://www.w3.org/1999/xlink" x="0px" y="0px"
	 width="70px" height="70px" viewBox="0 0 70 70" enable-background="new 0 0 70 70" xml:space="preserve">
<g>
	<g>
		<path fill="#FFFFFF" d="M64.9,70H5.1C2.3,70,0,67.7,0,64.9V5.1h1v59.8C1,67.2,2.8,69,5.1,69h59.8c2.3,0,4.1-1.8,4.1-4.1V5.1
			C69,2.8,67.2,1,64.9,1H19.5V0h45.4C67.7,0,70,2.3,70,5.1v59.8C70,67.7,67.7,70,64.9,70z"/>
	</g>
	<g>
		<path fill="#FFFFFF" d="M58.1,60.7H11.9v-1h46.3c0.9,0,1.6-0.7,1.6-1.6V11.9c0-0.9-0.7-1.6-1.6-1.6H11.9c-0.9,0-1.6,0.7-1.6,1.6
			v32.1h-1V11.9c0-1.4,1.2-2.6,2.6-2.6h46.3c1.4,0,2.6,1.2,2.6,2.6v46.3C60.7,59.6,59.6,60.7,58.1,60.7z"/>
	</g>
	<g>
		<path fill="#FFFFFF" d="M39.8,51.4H20c-0.8,0-1.4-0.6-1.4-1.4V20c0-0.8,0.6-1.4,1.4-1.4h30c0.8,0,1.4,0.6,1.4,1.4v30h-1V20
			c0-0.2-0.2-0.4-0.4-0.4H20c-0.2,0-0.4,0.2-0.4,0.4v30c0,0.2,0.2,0.4,0.4,0.4h19.8V51.4z"/>
	</g>
	<g>
		<path fill="#FFFFFF" d="M40.8,42.4H29.2v-1h11.5c0.4,0,0.7-0.3,0.7-0.7V29.2c0-0.4-0.3-0.7-0.7-0.7H29.2c-0.4,0-0.7,0.3-0.7,0.7
			v2.9h-1v-2.9c0-0.9,0.7-1.6,1.6-1.6h11.5c0.9,0,1.6,0.7,1.6,1.6v11.5C42.4,41.7,41.7,42.4,40.8,42.4z"/>
	</g>
	<g>
		<rect x="38.3" y="0.5" fill="#FFFFFF" width="1" height="8.1"/>
	</g>
	<g>
		<rect x="34.5" y="41.9" fill="#FFFFFF" width="1" height="8.8"/>
	</g>
	<g>
		<rect x="9.8" y="27.6" fill="#FFFFFF" width="9" height="1"/>
	</g>
	<g>
		<rect x="50.9" y="34.5" fill="#FFFFFF" width="8.9" height="1"/>
	</g>
	<g>
		<path fill="#FFFFFF" d="M35,37.8c-1.5,0-2.8-1.3-2.8-2.8c0-1.5,1.3-2.8,2.8-2.8s2.8,1.3,2.8,2.8C37.8,36.5,36.5,37.8,35,37.8z
			 M35,33.2c-1,0-1.8,0.8-1.8,1.8c0,1,0.8,1.8,1.8,1.8c1,0,1.8-0.8,1.8-1.8C36.8,34,36,33.2,35,33.2z"/>
	</g>
</g>
</svg>
