<?xml version="1.0" encoding="utf-8"?>
<!-- Generator: Adobe Illustrator 16.0.0, SVG Export Plug-In . SVG Version: 6.00 Build 0)  -->
<!DOCTYPE svg PUBLIC "-//W3C//DTD SVG 1.1//EN" "http://www.w3.org/Graphics/SVG/1.1/DTD/svg11.dtd">
<svg version="1.1" id="Layer_1" xmlns="http://www.w3.org/2000/svg" xmlns:xlink="http://www.w3.org/1999/xlink" x="0px" y="0px"
	 width="70px" height="80px" viewBox="0 0 70 80" enable-background="new 0 0 70 80" xml:space="preserve">
<g>
	<g>
		<path fill="#FFFFFF" d="M15.8,15.8H0V0h15.8V15.8z M1,14.8h13.8V1H1V14.8z"/>
	</g>
	<g>
		<path fill="#FFFFFF" d="M34,15.8H18.3V0H34V15.8z M19.3,14.8h13.8V1H19.3V14.8z"/>
	</g>
	<g>
		<path fill="#FFFFFF" d="M15.8,33.8H0V18h15.8V33.8z M1,32.8h13.8V19H1V32.8z"/>
	</g>
	<g>
		<path fill="#FFFFFF" d="M15.8,51.8H0V36h15.8V51.8z M1,50.8h13.8V36.9H1V50.8z"/>
	</g>
	<g>
		<g>
			<path fill="#FFFFFF" d="M51.7,44.1H36V28.2h15.8V44.1z M36.9,43.1h13.8V29.2H36.9V43.1z"/>
		</g>
		<g>
			<path fill="#FFFFFF" d="M51.7,62H36V46.2h15.8V62z M36.9,61h13.8V47.2H36.9V61z"/>
		</g>
		<g>
			<path fill="#FFFFFF" d="M33.5,80H17.7V64.2h15.8V80z M18.7,79h13.8V65.2H18.7V79z"/>
		</g>
		<g>
			<path fill="#FFFFFF" d="M51.7,80H36V64.2h15.8V80z M36.9,79h13.8V65.2H36.9V79z"/>
		</g>
		<g>
			<path fill="#FFFFFF" d="M70,80H54.2V64.2H70V80z M55.2,79H69V65.2H55.2V79z"/>
		</g>
	</g>
</g>
</svg>
