<?xml version="1.0" encoding="utf-8"?>
<!-- Generator: Adobe Illustrator 16.0.0, SVG Export Plug-In . SVG Version: 6.00 Build 0)  -->
<!DOCTYPE svg PUBLIC "-//W3C//DTD SVG 1.1//EN" "http://www.w3.org/Graphics/SVG/1.1/DTD/svg11.dtd">
<svg version="1.1" id="Layer_1" xmlns="http://www.w3.org/2000/svg" xmlns:xlink="http://www.w3.org/1999/xlink" x="0px" y="0px"
	 width="14px" height="14px" viewBox="0 0 14 14" enable-background="new 0 0 14 14" xml:space="preserve">
<g>
	<g>
		<g>
			<g>
				<path fill="#FFFFFF" d="M11,8.7c-0.3-0.3-0.6-0.5-1-0.5c-0.4,0-0.7,0.2-1,0.5L8.1,9.6C8,9.6,8,9.5,7.9,9.5
					C7.8,9.4,7.7,9.4,7.6,9.3C6.7,8.8,6,8,5.2,7.1C4.8,6.6,4.6,6.3,4.4,5.9c0.2-0.2,0.5-0.5,0.7-0.7C5.2,5.1,5.3,5,5.3,4.9
					c0.6-0.6,0.6-1.4,0-2L4.5,2.1C4.5,2,4.4,1.9,4.3,1.8C4.1,1.6,3.9,1.4,3.7,1.2C3.4,1,3.1,0.8,2.7,0.8c-0.4,0-0.7,0.1-1,0.4l0,0
					l-1,1C0.4,2.6,0.2,3.1,0.1,3.6C0.1,4.5,0.3,5.3,0.5,5.8C1,7.1,1.7,8.3,2.7,9.6c1.3,1.5,2.8,2.8,4.6,3.6C8,13.5,8.8,13.9,9.8,14
					c0.1,0,0.1,0,0.2,0c0.7,0,1.2-0.2,1.7-0.7c0,0,0,0,0,0c0.2-0.2,0.3-0.4,0.5-0.5c0.1-0.1,0.3-0.2,0.4-0.4c0.3-0.3,0.4-0.7,0.4-1
					c0-0.4-0.2-0.7-0.4-1L11,8.7z M12,11.8c-0.1,0.1-0.2,0.2-0.4,0.4c-0.2,0.2-0.4,0.4-0.6,0.6c-0.3,0.3-0.6,0.5-1.1,0.5
					c0,0-0.1,0-0.1,0c-0.9-0.1-1.7-0.4-2.3-0.7c-1.6-0.8-3.1-2-4.3-3.4c-1-1.2-1.7-2.3-2.1-3.5C1,4.8,0.9,4.2,0.9,3.7
					c0-0.3,0.2-0.6,0.4-0.9l1-1c0.1-0.1,0.3-0.2,0.4-0.2c0.2,0,0.3,0.1,0.4,0.2c0,0,0,0,0,0C3.4,2,3.5,2.2,3.7,2.4
					C3.8,2.4,3.9,2.5,4,2.6l0.8,0.8c0.3,0.3,0.3,0.6,0,0.9C4.7,4.4,4.6,4.5,4.5,4.6C4.3,4.9,4.1,5.1,3.8,5.3c0,0,0,0,0,0
					C3.5,5.6,3.6,5.9,3.6,6c0,0,0,0,0,0c0.2,0.5,0.5,1,0.9,1.6l0,0c0.8,1,1.6,1.8,2.6,2.4c0.1,0.1,0.2,0.1,0.4,0.2
					c0.1,0.1,0.2,0.1,0.3,0.2c0,0,0,0,0,0c0.1,0.1,0.2,0.1,0.3,0.1c0.2,0,0.4-0.2,0.4-0.2l1-1C9.7,9.1,9.8,9,10,9
					c0.2,0,0.3,0.1,0.4,0.2l0,0l1.6,1.6C12.3,11.2,12.3,11.5,12,11.8z"/>
			</g>
		</g>
		<g>
			<path fill="#FFFFFF" d="M7.6,3.3c0.8,0.1,1.5,0.5,2,1.1c0.6,0.6,0.9,1.3,1,2c0,0.2,0.2,0.3,0.4,0.3c0,0,0,0,0.1,0
				c0.2,0,0.4-0.2,0.3-0.5c-0.2-0.9-0.6-1.8-1.3-2.5C9.5,3.1,8.6,2.7,7.7,2.5c-0.2,0-0.4,0.1-0.5,0.3C7.2,3.1,7.3,3.3,7.6,3.3z"/>
		</g>
		<g>
			<path fill="#FFFFFF" d="M13.9,6.2c-0.3-1.5-1-2.9-2.1-4.1C10.7,1,9.3,0.3,7.8,0C7.6,0,7.4,0.1,7.4,0.3c0,0.2,0.1,0.4,0.3,0.5
				C9,1,10.3,1.7,11.2,2.7c1,1,1.6,2.3,1.9,3.6c0,0.2,0.2,0.3,0.4,0.3c0,0,0,0,0.1,0C13.8,6.6,13.9,6.4,13.9,6.2z"/>
		</g>
	</g>
</g>
</svg>
